<svg width="93" height="32" viewBox="0 0 93 32" fill="none" xmlns="http://www.w3.org/2000/svg">
<path fill-rule="evenodd" clip-rule="evenodd" d="M30.1848 16.8128C29.3337 16.0993 28.3967 15.815 27.0657 15.7018C29.969 14.4436 32 11.5523 32 8.18663C32 3.66528 28.3347 0 23.8134 0C20.4477 0 17.5564 2.03102 16.2982 4.93429C16.185 3.60333 15.9007 2.6663 15.1872 1.81516C15.0226 1.61883 14.7544 1.35061 14.5581 1.18603C13.1432 0 11.491 0 8.18663 0C4.88221 0 3.23001 0 1.81516 1.18603C1.61883 1.35061 1.35061 1.61883 1.18603 1.81516C0 3.23001 0 4.88221 0 8.18663C0 11.491 0 13.1432 1.18603 14.5581C1.35061 14.7544 1.61883 15.0226 1.81517 15.1872C2.6663 15.9007 3.60334 16.185 4.93429 16.2982C2.03102 17.5564 0 20.4477 0 23.8134C0 28.3347 3.66528 32 8.18663 32C11.5523 32 14.4436 29.969 15.7018 27.0657C15.815 28.3967 16.0993 29.3337 16.8128 30.1848C16.9774 30.3812 17.2456 30.6494 17.4419 30.814C18.8568 32 20.509 32 23.8134 32C27.1178 32 28.77 32 30.1848 30.814C30.3812 30.6494 30.6494 30.3812 30.814 30.1848C32 28.77 32 27.1178 32 23.8134C32 20.509 32 18.8568 30.814 17.4419C30.6494 17.2456 30.3812 16.9774 30.1848 16.8128ZM15.1872 14.5581C15.9007 13.707 16.185 12.7699 16.2982 11.439C17.1244 13.3453 18.6547 14.8756 20.561 15.7018C19.2301 15.815 18.293 16.0993 17.4419 16.8128C17.2456 16.9774 16.9774 17.2456 16.8128 17.4419C16.0993 18.293 15.815 19.2301 15.7018 20.561C14.8756 18.6547 13.3453 17.1244 11.439 16.2982C12.7699 16.185 13.707 15.9007 14.5581 15.1872C14.7544 15.0226 15.0226 14.7544 15.1872 14.5581ZM59.7604 24.9405C59.7604 25.0418 59.6578 25.0924 59.4527 25.0924C59.2904 25.0924 59.0511 25.0797 58.735 25.0544C58.4273 25.0291 58.1924 25.0164 58.03 25.0164C57.8676 25.0164 57.6241 25.0291 57.2994 25.0544C56.9747 25.0797 56.7312 25.0924 56.5688 25.0924C56.3296 25.0924 56.0219 24.455 55.646 23.1803C55.2785 21.8971 54.9025 21.2471 54.518 21.2302C54.2019 21.2133 53.3773 21.2049 52.0442 21.2049H50.0191C48.6092 21.2049 47.8059 21.2133 47.6094 21.2302C47.3018 21.2555 46.9728 21.9056 46.6225 23.1803C46.2807 24.455 46.0158 25.0924 45.8278 25.0924H42.9438C42.7729 25.0924 42.6875 25.0333 42.6875 24.9151C42.6875 24.8307 42.7473 24.6408 42.8669 24.3453L46.0072 15.8611C46.2721 15.1773 47.0753 13.2062 48.4169 9.94756C48.6562 9.40728 48.9809 8.59263 49.391 7.50362C49.4936 7.18283 49.6047 7.02243 49.7243 7.02243C49.8866 7.02243 50.1259 7.04353 50.4421 7.08574C50.7582 7.12795 50.9975 7.14906 51.1598 7.14906C51.3137 7.14906 51.5444 7.12795 51.852 7.08574C52.1681 7.03509 52.3989 7.00977 52.5441 7.00977C52.621 7.00977 52.7278 7.16594 52.8646 7.47829C53.0696 7.95104 54.0822 10.4963 55.9023 15.114C58.4743 21.6059 59.7604 24.8814 59.7604 24.9405ZM53.7874 17.9505C53.7874 17.7057 53.4029 16.6083 52.6339 14.6582C51.8904 12.7672 51.3649 11.5262 51.0573 10.9353C49.2885 15.3926 48.4041 17.7268 48.4041 17.9379C48.4041 18.2249 48.7288 18.3937 49.3782 18.4444C49.4124 18.4528 49.8311 18.457 50.6343 18.457H51.9545C53.1765 18.457 53.7874 18.2882 53.7874 17.9505ZM92.6113 7.6934L92.6241 7.52878C92.6327 7.39371 92.5601 7.32617 92.4062 7.32617C92.2524 7.32617 92.0175 7.33883 91.7013 7.36416C91.3851 7.38949 91.1459 7.40215 90.9835 7.40215C90.8297 7.40215 90.599 7.38949 90.2914 7.36416C89.9838 7.33883 89.7531 7.32617 89.5992 7.32617C89.4198 7.32617 89.3301 7.41059 89.3301 7.57943C89.3301 8.48272 89.3728 9.85031 89.4583 11.6822C89.5522 13.5057 89.5992 14.8733 89.5992 15.785C89.5992 16.7896 89.5907 18.2965 89.5736 20.3057C89.5565 22.3064 89.548 23.8048 89.548 24.801C89.548 24.9952 89.6249 25.0922 89.7787 25.0922H92.2268C92.3635 25.0922 92.4319 24.9952 92.4319 24.801C92.4319 23.8048 92.4148 22.3064 92.3806 20.3057C92.3464 18.2965 92.3293 16.7896 92.3293 15.785C92.3293 13.531 92.4233 10.8338 92.6113 7.6934ZM85.1644 11.505C86.3351 11.505 86.9204 10.9858 86.9204 9.94745C86.9204 9.48314 86.7452 9.10325 86.3949 8.80779C86.0531 8.51232 85.6429 8.36458 85.1644 8.36458C84.6859 8.36458 84.2758 8.5081 83.934 8.79512C83.5665 9.09903 83.3828 9.48314 83.3828 9.94745C83.3828 10.9858 83.9767 11.505 85.1644 11.505ZM86.7025 16.3296C86.788 15.0126 86.8307 14.0291 86.8307 13.3791C86.8307 13.2187 86.7581 13.1385 86.6128 13.1385C86.4504 13.1385 86.2069 13.1596 85.8822 13.2018C85.566 13.244 85.3268 13.2651 85.1644 13.2651C85.0021 13.2651 84.7585 13.244 84.4338 13.2018C84.1177 13.1596 83.8827 13.1385 83.7289 13.1385C83.5494 13.1385 83.4597 13.2103 83.4597 13.3538C83.4597 14.0122 83.5067 15 83.6007 16.3169C83.7032 17.6338 83.7545 18.6215 83.7545 19.28C83.7545 19.871 83.7374 20.7531 83.7032 21.9266C83.6776 23.0916 83.6648 23.9653 83.6648 24.5478C83.6648 24.8939 83.7545 25.067 83.934 25.067H86.4333C86.5872 25.067 86.6641 24.9783 86.6641 24.801C86.6641 24.1932 86.6512 23.2773 86.6256 22.0532C86.6 20.8207 86.5872 19.8963 86.5872 19.28C86.5872 18.6215 86.6256 17.6381 86.7025 16.3296ZM81.2169 13.2905C81.2169 14.3035 81.2083 15.8273 81.1912 17.8618C81.1741 19.8879 81.1656 21.4074 81.1656 22.4204C81.1656 24.4296 80.7298 25.9112 79.8582 26.8651C78.9439 27.8781 77.4827 28.3847 75.4746 28.3847C73.5349 28.3847 71.9669 28.0217 70.7706 27.2957C70.5826 27.1775 70.4887 27.0762 70.4887 26.9917C70.4887 27.0846 70.6168 26.4599 70.8732 25.1176C70.8988 24.9741 70.9586 24.9024 71.0526 24.9024C71.0953 24.9024 71.1509 24.9235 71.2193 24.9657C72.501 25.6917 73.787 26.0547 75.0773 26.0547C75.9233 26.0547 76.6239 25.869 77.1794 25.4975C77.8202 25.0754 78.1407 24.4634 78.1407 23.6614C78.1407 23.4841 78.1236 23.0873 78.0894 22.4711C77.1409 23.6107 75.9361 24.1806 74.4749 24.1806C72.8941 24.1806 71.5952 23.6192 70.5784 22.4964C69.6042 21.4158 69.1172 20.0862 69.1172 18.5076C69.1172 16.9036 69.5872 15.5402 70.5271 14.4175C71.5269 13.2187 72.8257 12.6193 74.4236 12.6193C75.8335 12.6193 76.9529 13.1554 77.7818 14.2275C77.9185 14.4048 78.0168 14.4934 78.0766 14.4934C78.145 14.4934 78.1791 14.4175 78.1791 14.2655C78.1791 14.1558 78.1706 13.9827 78.1535 13.7463C78.1364 13.5015 78.1279 13.32 78.1279 13.2018C78.1279 12.6953 78.1791 12.4421 78.2817 12.4421C78.3671 12.4421 78.8286 12.5223 79.666 12.6827C80.5034 12.8346 80.9605 12.9275 81.0374 12.9612C81.1571 13.0034 81.2169 13.1132 81.2169 13.2905ZM78.1407 18.5076C78.1407 17.5621 77.8801 16.7601 77.3588 16.1016C76.7863 15.3841 76.0343 15.0253 75.1029 15.0253C74.1801 15.0253 73.4324 15.3883 72.8599 16.1143C72.3386 16.7728 72.078 17.5705 72.078 18.5076C72.078 19.4278 72.3429 20.2213 72.8727 20.8882C73.4452 21.6142 74.1886 21.9772 75.1029 21.9772C76.0087 21.9772 76.7521 21.6142 77.3332 20.8882C77.8715 20.2213 78.1407 19.4278 78.1407 18.5076ZM68.3224 15.7343C68.4506 14.9745 68.5147 14.1303 68.5147 13.2017C68.5147 13.0244 68.1814 12.9358 67.5149 12.9358C66.9937 12.9358 66.5664 12.9865 66.2331 13.0878C65.8315 13.1975 65.4385 13.3663 65.0539 13.5943L64.0029 14.2528C63.9773 14.2696 63.9559 14.2781 63.9388 14.2781C63.8277 14.2781 63.7508 14.029 63.7081 13.531C63.6654 13.0329 63.5757 12.7839 63.4389 12.7839C63.5073 12.7839 63.0801 12.8683 62.1572 13.0371C61.5847 13.1046 61.1403 13.1553 60.8242 13.1891C60.7131 13.2313 60.6576 13.303 60.6576 13.4043C60.6576 13.4381 60.6661 13.4888 60.6832 13.5563C61.0763 14.8226 61.2728 16.4983 61.2728 18.5835C61.2728 19.2757 61.26 20.3098 61.2343 21.6859C61.2172 23.0619 61.2087 24.0918 61.2087 24.7756C61.2087 24.9867 61.307 25.0922 61.5035 25.0922C61.7684 25.0922 62.17 25.0964 62.7083 25.1049C63.2467 25.1133 63.6483 25.1175 63.9132 25.1175C64.1097 25.1175 64.208 25.0036 64.208 24.7756C64.208 24.3029 64.1866 23.5853 64.1439 22.6229C64.1097 21.6606 64.0926 20.943 64.0926 20.4702V19.0773C64.0926 17.9292 64.1824 17.1737 64.3618 16.8107C64.6609 16.2113 65.3487 15.9116 66.4254 15.9116C66.6134 15.9116 66.8868 15.9327 67.2457 15.9749C67.6132 16.0087 67.8866 16.0256 68.066 16.0256C68.2113 16.0256 68.2968 15.9285 68.3224 15.7343Z" fill="white"/>
</svg>
